<svg width="914" height="1031" viewBox="0 0 914 1031" fill="none" xmlns="http://www.w3.org/2000/svg">
<path d="M0 296.221V733.851C0 761.506 14.7736 787.057 38.7517 800.884L418.248 1019.7C442.226 1033.52 471.774 1033.52 495.752 1019.7L875.248 800.884C899.226 787.057 914 761.506 914 733.851V296.221C914 268.567 899.226 243.016 875.248 229.188L495.752 10.3705C471.774 -3.45682 442.226 -3.45682 418.248 10.3705L38.7517 229.188C14.7736 243.01 0 268.567 0 296.221Z" fill="#00041A"/>
<path d="M456.252 821.746C451.808 824.128 446.447 824.069 442.05 821.591L152.914 658.593C143.097 653.055 130.947 660.144 130.947 671.404C130.947 676.58 133.672 681.375 138.117 684.031L442.912 866.014C447.482 868.742 453.164 868.795 457.781 866.157L775.661 684.584C780.724 681.69 783.592 676.093 782.997 670.299C782.081 661.404 781.248 649.104 783.3 646.65L456.252 821.746Z" fill="white"/>
<path d="M783.422 646.643L784.249 646.203C783.934 646.203 783.66 646.364 783.422 646.643Z" fill="white"/>
<path d="M771.615 732.681L450.445 912.786L126.395 727.737C117.042 722.395 111.265 712.46 111.265 701.693V629.086C111.265 615.247 126.163 606.512 138.265 613.25L450.772 787.39L821.439 577.633C825.431 575.375 825.086 569.516 820.856 567.74L777.749 549.646C749.731 537.887 717.964 538.98 690.821 552.635L450.772 673.402L211.211 555.457C179.933 540.055 143.251 540.109 112.014 555.588C86.9772 567.995 71.1445 593.499 71.1445 621.409V680.859C71.1445 714.094 88.7146 744.862 117.357 761.779L450.445 958.516L840.021 735.259L821.921 728.634C805.368 722.573 786.983 724.053 771.615 732.675V732.681Z" fill="#0084FF"/>
<path d="M858.486 312.555L456.606 80.4145C452.988 78.3288 448.532 78.3407 444.926 80.4442L47.8776 312.65C40.0951 317.201 40.2558 328.491 48.1632 332.817L189.104 409.934V474.661C189.104 486.67 195.637 497.723 206.163 503.528L434.52 629.489C444.427 634.949 456.439 634.973 466.358 629.536L696.56 503.504C707.133 497.717 713.707 486.629 713.707 474.584V409.928L815.802 355.415V500.183C815.802 508.454 822.519 515.163 830.801 515.163H837.239C845.521 515.163 852.239 508.454 852.239 500.183V335.961L858.141 332.811C866.167 328.527 866.358 317.106 858.48 312.555H858.486ZM792.163 329.115L455.053 506.487C452.703 507.723 449.895 507.711 447.556 506.457L116.95 329.401C111.417 326.441 111.315 318.556 116.766 315.448L446.521 127.31C448.949 125.925 451.923 125.907 454.363 127.268L792.317 315.098C797.857 318.176 797.767 326.168 792.157 329.121L792.163 329.115Z" fill="white"/>
</svg>
